# xmcd
#
# Track frame offsets:
#	150
#	17098
#	36217
#	53145
#	71576
#	89342
#	105527
#	119012
#	134222
#	151916
#	165118
#	181399
#	197688
#
# Disc length: 2857
#
# Revision: 1
# Processed by: cddbd v1.5.1PL0 Copyright (c) Steve Scherf et al.
# Submitted via: CDex 1.50beta9
# Normalized: r0:TDELIM( - )
#
DISCID=ae0b270d
DTITLE=Various Artist - CDX Volume 180 - February 1998
DYEAR=1998
DGENRE=Country
TTITLE0=Lee Roy Parnell - All That Matters Anymore
TTITLE1=Sawyer Brown - Another Side
TTITLE2=Nitty Gritty Dirt Band - Bang, Bang, Bang
TTITLE3=Mila Mason - Closer To Heaven
TTITLE4=Richchet - Connected At The Heart
TTITLE5=Tracy Byrd - I'm From The Country
TTITLE6=Gary Allan - It Would Be You
TTITLE7=Alabama - She's Got That Look In Her Eyes
TTITLE8=Perfect Stranger - The Truth Is Lyin' Next To You
TTITLE9=Dean Miller - Wake Up And Smell The Whiskey
TTITLE10=Brad Hawkins - We Lose
TTITLE11=The Lynns - Woman To Woman
TTITLE12=Wade Richardson - I Just Wanna Be Bayou
EXTD=YEAR: 1998
EXTT0=
EXTT1=
EXTT2=
EXTT3=
EXTT4=
EXTT5=
EXTT6=
EXTT7=
EXTT8=
EXTT9=
EXTT10=
EXTT11=
EXTT12=
PLAYORDER=
